<mxfile host="app.diagrams.net" modified="2023-04-20T14:35:05.439Z" agent="Mozilla/5.0 (Macintosh; Intel Mac OS X 10_15_7) AppleWebKit/537.36 (KHTML, like Gecko) Chrome/112.0.0.0 Safari/537.36 Edg/112.0.1722.48" etag="kneYLQoslojSvpoDfKka" version="21.1.8" type="github">
  <diagram name="第 1 页" id="5S22_qVlfajSDkN1grTT">
    <mxGraphModel dx="1434" dy="745" grid="1" gridSize="10" guides="1" tooltips="1" connect="1" arrows="1" fold="1" page="1" pageScale="1" pageWidth="3300" pageHeight="4681" math="0" shadow="0">
      <root>
        <mxCell id="0" />
        <mxCell id="1" parent="0" />
        <mxCell id="OOjkwXW9jq_-rCwJ6NxN-152" value="" style="group" vertex="1" connectable="0" parent="1">
          <mxGeometry x="620" y="240" width="150" height="60" as="geometry" />
        </mxCell>
        <mxCell id="OOjkwXW9jq_-rCwJ6NxN-27" value="" style="rounded=0;whiteSpace=wrap;html=1;" vertex="1" parent="OOjkwXW9jq_-rCwJ6NxN-152">
          <mxGeometry x="13" width="120" height="60" as="geometry" />
        </mxCell>
        <mxCell id="OOjkwXW9jq_-rCwJ6NxN-28" value="" style="endArrow=none;html=1;rounded=0;entryX=0.25;entryY=0;entryDx=0;entryDy=0;" edge="1" parent="OOjkwXW9jq_-rCwJ6NxN-152" target="OOjkwXW9jq_-rCwJ6NxN-27">
          <mxGeometry width="50" height="50" relative="1" as="geometry">
            <mxPoint x="43" y="60" as="sourcePoint" />
            <mxPoint x="93" y="10" as="targetPoint" />
          </mxGeometry>
        </mxCell>
        <mxCell id="OOjkwXW9jq_-rCwJ6NxN-29" value="" style="endArrow=none;html=1;rounded=0;entryX=0.5;entryY=0;entryDx=0;entryDy=0;exitX=0.5;exitY=1;exitDx=0;exitDy=0;" edge="1" parent="OOjkwXW9jq_-rCwJ6NxN-152" source="OOjkwXW9jq_-rCwJ6NxN-27" target="OOjkwXW9jq_-rCwJ6NxN-27">
          <mxGeometry width="50" height="50" relative="1" as="geometry">
            <mxPoint x="53" y="70" as="sourcePoint" />
            <mxPoint x="53" y="10" as="targetPoint" />
          </mxGeometry>
        </mxCell>
        <mxCell id="OOjkwXW9jq_-rCwJ6NxN-30" value="" style="endArrow=none;html=1;rounded=0;entryX=0.75;entryY=0;entryDx=0;entryDy=0;exitX=0.75;exitY=1;exitDx=0;exitDy=0;" edge="1" parent="OOjkwXW9jq_-rCwJ6NxN-152" source="OOjkwXW9jq_-rCwJ6NxN-27" target="OOjkwXW9jq_-rCwJ6NxN-27">
          <mxGeometry width="50" height="50" relative="1" as="geometry">
            <mxPoint x="63" y="80" as="sourcePoint" />
            <mxPoint x="63" y="20" as="targetPoint" />
          </mxGeometry>
        </mxCell>
        <mxCell id="OOjkwXW9jq_-rCwJ6NxN-144" value="0" style="text;html=1;strokeColor=none;fillColor=none;align=center;verticalAlign=middle;whiteSpace=wrap;rounded=0;" vertex="1" parent="OOjkwXW9jq_-rCwJ6NxN-152">
          <mxGeometry y="15" width="60" height="30" as="geometry" />
        </mxCell>
        <mxCell id="OOjkwXW9jq_-rCwJ6NxN-146" value="0" style="text;html=1;strokeColor=none;fillColor=none;align=center;verticalAlign=middle;whiteSpace=wrap;rounded=0;" vertex="1" parent="OOjkwXW9jq_-rCwJ6NxN-152">
          <mxGeometry x="30" y="15" width="60" height="30" as="geometry" />
        </mxCell>
        <mxCell id="OOjkwXW9jq_-rCwJ6NxN-150" value="0" style="text;html=1;strokeColor=none;fillColor=none;align=center;verticalAlign=middle;whiteSpace=wrap;rounded=0;" vertex="1" parent="OOjkwXW9jq_-rCwJ6NxN-152">
          <mxGeometry x="60" y="15" width="60" height="30" as="geometry" />
        </mxCell>
        <mxCell id="OOjkwXW9jq_-rCwJ6NxN-151" value="0" style="text;html=1;strokeColor=none;fillColor=none;align=center;verticalAlign=middle;whiteSpace=wrap;rounded=0;" vertex="1" parent="OOjkwXW9jq_-rCwJ6NxN-152">
          <mxGeometry x="90" y="15" width="60" height="30" as="geometry" />
        </mxCell>
        <mxCell id="OOjkwXW9jq_-rCwJ6NxN-227" value="" style="group" vertex="1" connectable="0" parent="OOjkwXW9jq_-rCwJ6NxN-152">
          <mxGeometry x="-60" width="150" height="60" as="geometry" />
        </mxCell>
        <mxCell id="OOjkwXW9jq_-rCwJ6NxN-228" value="" style="rounded=0;whiteSpace=wrap;html=1;" vertex="1" parent="OOjkwXW9jq_-rCwJ6NxN-227">
          <mxGeometry x="13" width="120" height="60" as="geometry" />
        </mxCell>
        <mxCell id="OOjkwXW9jq_-rCwJ6NxN-229" value="" style="endArrow=none;html=1;rounded=0;entryX=0.25;entryY=0;entryDx=0;entryDy=0;" edge="1" parent="OOjkwXW9jq_-rCwJ6NxN-227" target="OOjkwXW9jq_-rCwJ6NxN-228">
          <mxGeometry width="50" height="50" relative="1" as="geometry">
            <mxPoint x="43" y="60" as="sourcePoint" />
            <mxPoint x="93" y="10" as="targetPoint" />
          </mxGeometry>
        </mxCell>
        <mxCell id="OOjkwXW9jq_-rCwJ6NxN-230" value="" style="endArrow=none;html=1;rounded=0;entryX=0.5;entryY=0;entryDx=0;entryDy=0;exitX=0.5;exitY=1;exitDx=0;exitDy=0;" edge="1" parent="OOjkwXW9jq_-rCwJ6NxN-227" source="OOjkwXW9jq_-rCwJ6NxN-228" target="OOjkwXW9jq_-rCwJ6NxN-228">
          <mxGeometry width="50" height="50" relative="1" as="geometry">
            <mxPoint x="53" y="70" as="sourcePoint" />
            <mxPoint x="53" y="10" as="targetPoint" />
          </mxGeometry>
        </mxCell>
        <mxCell id="OOjkwXW9jq_-rCwJ6NxN-231" value="" style="endArrow=none;html=1;rounded=0;entryX=0.75;entryY=0;entryDx=0;entryDy=0;exitX=0.75;exitY=1;exitDx=0;exitDy=0;" edge="1" parent="OOjkwXW9jq_-rCwJ6NxN-227" source="OOjkwXW9jq_-rCwJ6NxN-228" target="OOjkwXW9jq_-rCwJ6NxN-228">
          <mxGeometry width="50" height="50" relative="1" as="geometry">
            <mxPoint x="63" y="80" as="sourcePoint" />
            <mxPoint x="63" y="20" as="targetPoint" />
          </mxGeometry>
        </mxCell>
        <mxCell id="OOjkwXW9jq_-rCwJ6NxN-232" value="0" style="text;html=1;strokeColor=none;fillColor=none;align=center;verticalAlign=middle;whiteSpace=wrap;rounded=0;" vertex="1" parent="OOjkwXW9jq_-rCwJ6NxN-227">
          <mxGeometry y="15" width="60" height="30" as="geometry" />
        </mxCell>
        <mxCell id="OOjkwXW9jq_-rCwJ6NxN-233" value="0" style="text;html=1;strokeColor=none;fillColor=none;align=center;verticalAlign=middle;whiteSpace=wrap;rounded=0;" vertex="1" parent="OOjkwXW9jq_-rCwJ6NxN-227">
          <mxGeometry x="30" y="15" width="60" height="30" as="geometry" />
        </mxCell>
        <mxCell id="OOjkwXW9jq_-rCwJ6NxN-234" value="0" style="text;html=1;strokeColor=none;fillColor=none;align=center;verticalAlign=middle;whiteSpace=wrap;rounded=0;" vertex="1" parent="OOjkwXW9jq_-rCwJ6NxN-227">
          <mxGeometry x="60" y="15" width="60" height="30" as="geometry" />
        </mxCell>
        <mxCell id="OOjkwXW9jq_-rCwJ6NxN-235" value="0" style="text;html=1;strokeColor=none;fillColor=none;align=center;verticalAlign=middle;whiteSpace=wrap;rounded=0;" vertex="1" parent="OOjkwXW9jq_-rCwJ6NxN-227">
          <mxGeometry x="90" y="15" width="60" height="30" as="geometry" />
        </mxCell>
        <mxCell id="OOjkwXW9jq_-rCwJ6NxN-153" value="" style="group" vertex="1" connectable="0" parent="1">
          <mxGeometry x="740" y="240" width="150" height="60" as="geometry" />
        </mxCell>
        <mxCell id="OOjkwXW9jq_-rCwJ6NxN-154" value="" style="rounded=0;whiteSpace=wrap;html=1;" vertex="1" parent="OOjkwXW9jq_-rCwJ6NxN-153">
          <mxGeometry x="13" width="120" height="60" as="geometry" />
        </mxCell>
        <mxCell id="OOjkwXW9jq_-rCwJ6NxN-155" value="" style="endArrow=none;html=1;rounded=0;entryX=0.25;entryY=0;entryDx=0;entryDy=0;" edge="1" parent="OOjkwXW9jq_-rCwJ6NxN-153" target="OOjkwXW9jq_-rCwJ6NxN-154">
          <mxGeometry width="50" height="50" relative="1" as="geometry">
            <mxPoint x="43" y="60" as="sourcePoint" />
            <mxPoint x="93" y="10" as="targetPoint" />
          </mxGeometry>
        </mxCell>
        <mxCell id="OOjkwXW9jq_-rCwJ6NxN-156" value="" style="endArrow=none;html=1;rounded=0;entryX=0.5;entryY=0;entryDx=0;entryDy=0;exitX=0.5;exitY=1;exitDx=0;exitDy=0;" edge="1" parent="OOjkwXW9jq_-rCwJ6NxN-153" source="OOjkwXW9jq_-rCwJ6NxN-154" target="OOjkwXW9jq_-rCwJ6NxN-154">
          <mxGeometry width="50" height="50" relative="1" as="geometry">
            <mxPoint x="53" y="70" as="sourcePoint" />
            <mxPoint x="53" y="10" as="targetPoint" />
          </mxGeometry>
        </mxCell>
        <mxCell id="OOjkwXW9jq_-rCwJ6NxN-157" value="" style="endArrow=none;html=1;rounded=0;entryX=0.75;entryY=0;entryDx=0;entryDy=0;exitX=0.75;exitY=1;exitDx=0;exitDy=0;" edge="1" parent="OOjkwXW9jq_-rCwJ6NxN-153" source="OOjkwXW9jq_-rCwJ6NxN-154" target="OOjkwXW9jq_-rCwJ6NxN-154">
          <mxGeometry width="50" height="50" relative="1" as="geometry">
            <mxPoint x="63" y="80" as="sourcePoint" />
            <mxPoint x="63" y="20" as="targetPoint" />
          </mxGeometry>
        </mxCell>
        <mxCell id="OOjkwXW9jq_-rCwJ6NxN-158" value="0" style="text;html=1;strokeColor=none;fillColor=none;align=center;verticalAlign=middle;whiteSpace=wrap;rounded=0;" vertex="1" parent="OOjkwXW9jq_-rCwJ6NxN-153">
          <mxGeometry y="15" width="60" height="30" as="geometry" />
        </mxCell>
        <mxCell id="OOjkwXW9jq_-rCwJ6NxN-159" value="0" style="text;html=1;strokeColor=none;fillColor=none;align=center;verticalAlign=middle;whiteSpace=wrap;rounded=0;" vertex="1" parent="OOjkwXW9jq_-rCwJ6NxN-153">
          <mxGeometry x="30" y="15" width="60" height="30" as="geometry" />
        </mxCell>
        <mxCell id="OOjkwXW9jq_-rCwJ6NxN-160" value="0" style="text;html=1;strokeColor=none;fillColor=none;align=center;verticalAlign=middle;whiteSpace=wrap;rounded=0;" vertex="1" parent="OOjkwXW9jq_-rCwJ6NxN-153">
          <mxGeometry x="60" y="15" width="60" height="30" as="geometry" />
        </mxCell>
        <mxCell id="OOjkwXW9jq_-rCwJ6NxN-161" value="0" style="text;html=1;strokeColor=none;fillColor=none;align=center;verticalAlign=middle;whiteSpace=wrap;rounded=0;" vertex="1" parent="OOjkwXW9jq_-rCwJ6NxN-153">
          <mxGeometry x="90" y="15" width="60" height="30" as="geometry" />
        </mxCell>
        <mxCell id="OOjkwXW9jq_-rCwJ6NxN-162" value="" style="group" vertex="1" connectable="0" parent="1">
          <mxGeometry x="860" y="240" width="150" height="60" as="geometry" />
        </mxCell>
        <mxCell id="OOjkwXW9jq_-rCwJ6NxN-163" value="" style="rounded=0;whiteSpace=wrap;html=1;" vertex="1" parent="OOjkwXW9jq_-rCwJ6NxN-162">
          <mxGeometry x="13" width="120" height="60" as="geometry" />
        </mxCell>
        <mxCell id="OOjkwXW9jq_-rCwJ6NxN-164" value="" style="endArrow=none;html=1;rounded=0;entryX=0.25;entryY=0;entryDx=0;entryDy=0;" edge="1" parent="OOjkwXW9jq_-rCwJ6NxN-162" target="OOjkwXW9jq_-rCwJ6NxN-163">
          <mxGeometry width="50" height="50" relative="1" as="geometry">
            <mxPoint x="43" y="60" as="sourcePoint" />
            <mxPoint x="93" y="10" as="targetPoint" />
          </mxGeometry>
        </mxCell>
        <mxCell id="OOjkwXW9jq_-rCwJ6NxN-165" value="" style="endArrow=none;html=1;rounded=0;entryX=0.5;entryY=0;entryDx=0;entryDy=0;exitX=0.5;exitY=1;exitDx=0;exitDy=0;" edge="1" parent="OOjkwXW9jq_-rCwJ6NxN-162" source="OOjkwXW9jq_-rCwJ6NxN-163" target="OOjkwXW9jq_-rCwJ6NxN-163">
          <mxGeometry width="50" height="50" relative="1" as="geometry">
            <mxPoint x="53" y="70" as="sourcePoint" />
            <mxPoint x="53" y="10" as="targetPoint" />
          </mxGeometry>
        </mxCell>
        <mxCell id="OOjkwXW9jq_-rCwJ6NxN-166" value="" style="endArrow=none;html=1;rounded=0;entryX=0.75;entryY=0;entryDx=0;entryDy=0;exitX=0.75;exitY=1;exitDx=0;exitDy=0;" edge="1" parent="OOjkwXW9jq_-rCwJ6NxN-162" source="OOjkwXW9jq_-rCwJ6NxN-163" target="OOjkwXW9jq_-rCwJ6NxN-163">
          <mxGeometry width="50" height="50" relative="1" as="geometry">
            <mxPoint x="63" y="80" as="sourcePoint" />
            <mxPoint x="63" y="20" as="targetPoint" />
          </mxGeometry>
        </mxCell>
        <mxCell id="OOjkwXW9jq_-rCwJ6NxN-167" value="0" style="text;html=1;strokeColor=none;fillColor=none;align=center;verticalAlign=middle;whiteSpace=wrap;rounded=0;" vertex="1" parent="OOjkwXW9jq_-rCwJ6NxN-162">
          <mxGeometry y="15" width="60" height="30" as="geometry" />
        </mxCell>
        <mxCell id="OOjkwXW9jq_-rCwJ6NxN-168" value="0" style="text;html=1;strokeColor=none;fillColor=none;align=center;verticalAlign=middle;whiteSpace=wrap;rounded=0;" vertex="1" parent="OOjkwXW9jq_-rCwJ6NxN-162">
          <mxGeometry x="30" y="15" width="60" height="30" as="geometry" />
        </mxCell>
        <mxCell id="OOjkwXW9jq_-rCwJ6NxN-169" value="0" style="text;html=1;strokeColor=none;fillColor=none;align=center;verticalAlign=middle;whiteSpace=wrap;rounded=0;" vertex="1" parent="OOjkwXW9jq_-rCwJ6NxN-162">
          <mxGeometry x="60" y="15" width="60" height="30" as="geometry" />
        </mxCell>
        <mxCell id="OOjkwXW9jq_-rCwJ6NxN-170" value="0" style="text;html=1;strokeColor=none;fillColor=none;align=center;verticalAlign=middle;whiteSpace=wrap;rounded=0;" vertex="1" parent="OOjkwXW9jq_-rCwJ6NxN-162">
          <mxGeometry x="90" y="15" width="60" height="30" as="geometry" />
        </mxCell>
        <mxCell id="OOjkwXW9jq_-rCwJ6NxN-182" value="" style="group" vertex="1" connectable="0" parent="1">
          <mxGeometry x="980" y="240" width="150" height="60" as="geometry" />
        </mxCell>
        <mxCell id="OOjkwXW9jq_-rCwJ6NxN-183" value="" style="rounded=0;whiteSpace=wrap;html=1;" vertex="1" parent="OOjkwXW9jq_-rCwJ6NxN-182">
          <mxGeometry x="13" width="120" height="60" as="geometry" />
        </mxCell>
        <mxCell id="OOjkwXW9jq_-rCwJ6NxN-184" value="" style="endArrow=none;html=1;rounded=0;entryX=0.25;entryY=0;entryDx=0;entryDy=0;" edge="1" parent="OOjkwXW9jq_-rCwJ6NxN-182" target="OOjkwXW9jq_-rCwJ6NxN-183">
          <mxGeometry width="50" height="50" relative="1" as="geometry">
            <mxPoint x="43" y="60" as="sourcePoint" />
            <mxPoint x="93" y="10" as="targetPoint" />
          </mxGeometry>
        </mxCell>
        <mxCell id="OOjkwXW9jq_-rCwJ6NxN-185" value="" style="endArrow=none;html=1;rounded=0;entryX=0.5;entryY=0;entryDx=0;entryDy=0;exitX=0.5;exitY=1;exitDx=0;exitDy=0;" edge="1" parent="OOjkwXW9jq_-rCwJ6NxN-182" source="OOjkwXW9jq_-rCwJ6NxN-183" target="OOjkwXW9jq_-rCwJ6NxN-183">
          <mxGeometry width="50" height="50" relative="1" as="geometry">
            <mxPoint x="53" y="70" as="sourcePoint" />
            <mxPoint x="53" y="10" as="targetPoint" />
          </mxGeometry>
        </mxCell>
        <mxCell id="OOjkwXW9jq_-rCwJ6NxN-186" value="" style="endArrow=none;html=1;rounded=0;entryX=0.75;entryY=0;entryDx=0;entryDy=0;exitX=0.75;exitY=1;exitDx=0;exitDy=0;" edge="1" parent="OOjkwXW9jq_-rCwJ6NxN-182" source="OOjkwXW9jq_-rCwJ6NxN-183" target="OOjkwXW9jq_-rCwJ6NxN-183">
          <mxGeometry width="50" height="50" relative="1" as="geometry">
            <mxPoint x="63" y="80" as="sourcePoint" />
            <mxPoint x="63" y="20" as="targetPoint" />
          </mxGeometry>
        </mxCell>
        <mxCell id="OOjkwXW9jq_-rCwJ6NxN-187" value="0" style="text;html=1;strokeColor=none;fillColor=none;align=center;verticalAlign=middle;whiteSpace=wrap;rounded=0;" vertex="1" parent="OOjkwXW9jq_-rCwJ6NxN-182">
          <mxGeometry y="15" width="60" height="30" as="geometry" />
        </mxCell>
        <mxCell id="OOjkwXW9jq_-rCwJ6NxN-188" value="0" style="text;html=1;strokeColor=none;fillColor=none;align=center;verticalAlign=middle;whiteSpace=wrap;rounded=0;" vertex="1" parent="OOjkwXW9jq_-rCwJ6NxN-182">
          <mxGeometry x="30" y="15" width="60" height="30" as="geometry" />
        </mxCell>
        <mxCell id="OOjkwXW9jq_-rCwJ6NxN-189" value="0" style="text;html=1;strokeColor=none;fillColor=none;align=center;verticalAlign=middle;whiteSpace=wrap;rounded=0;" vertex="1" parent="OOjkwXW9jq_-rCwJ6NxN-182">
          <mxGeometry x="60" y="15" width="60" height="30" as="geometry" />
        </mxCell>
        <mxCell id="OOjkwXW9jq_-rCwJ6NxN-190" value="0" style="text;html=1;strokeColor=none;fillColor=none;align=center;verticalAlign=middle;whiteSpace=wrap;rounded=0;" vertex="1" parent="OOjkwXW9jq_-rCwJ6NxN-182">
          <mxGeometry x="90" y="15" width="60" height="30" as="geometry" />
        </mxCell>
        <mxCell id="OOjkwXW9jq_-rCwJ6NxN-191" value="" style="group" vertex="1" connectable="0" parent="1">
          <mxGeometry x="1100" y="240" width="150" height="60" as="geometry" />
        </mxCell>
        <mxCell id="OOjkwXW9jq_-rCwJ6NxN-192" value="" style="rounded=0;whiteSpace=wrap;html=1;" vertex="1" parent="OOjkwXW9jq_-rCwJ6NxN-191">
          <mxGeometry x="13" width="120" height="60" as="geometry" />
        </mxCell>
        <mxCell id="OOjkwXW9jq_-rCwJ6NxN-193" value="" style="endArrow=none;html=1;rounded=0;entryX=0.25;entryY=0;entryDx=0;entryDy=0;" edge="1" parent="OOjkwXW9jq_-rCwJ6NxN-191" target="OOjkwXW9jq_-rCwJ6NxN-192">
          <mxGeometry width="50" height="50" relative="1" as="geometry">
            <mxPoint x="43" y="60" as="sourcePoint" />
            <mxPoint x="93" y="10" as="targetPoint" />
          </mxGeometry>
        </mxCell>
        <mxCell id="OOjkwXW9jq_-rCwJ6NxN-194" value="" style="endArrow=none;html=1;rounded=0;entryX=0.5;entryY=0;entryDx=0;entryDy=0;exitX=0.5;exitY=1;exitDx=0;exitDy=0;" edge="1" parent="OOjkwXW9jq_-rCwJ6NxN-191" source="OOjkwXW9jq_-rCwJ6NxN-192" target="OOjkwXW9jq_-rCwJ6NxN-192">
          <mxGeometry width="50" height="50" relative="1" as="geometry">
            <mxPoint x="53" y="70" as="sourcePoint" />
            <mxPoint x="53" y="10" as="targetPoint" />
          </mxGeometry>
        </mxCell>
        <mxCell id="OOjkwXW9jq_-rCwJ6NxN-195" value="" style="endArrow=none;html=1;rounded=0;entryX=0.75;entryY=0;entryDx=0;entryDy=0;exitX=0.75;exitY=1;exitDx=0;exitDy=0;" edge="1" parent="OOjkwXW9jq_-rCwJ6NxN-191" source="OOjkwXW9jq_-rCwJ6NxN-192" target="OOjkwXW9jq_-rCwJ6NxN-192">
          <mxGeometry width="50" height="50" relative="1" as="geometry">
            <mxPoint x="63" y="80" as="sourcePoint" />
            <mxPoint x="63" y="20" as="targetPoint" />
          </mxGeometry>
        </mxCell>
        <mxCell id="OOjkwXW9jq_-rCwJ6NxN-196" value="0" style="text;html=1;strokeColor=none;fillColor=none;align=center;verticalAlign=middle;whiteSpace=wrap;rounded=0;" vertex="1" parent="OOjkwXW9jq_-rCwJ6NxN-191">
          <mxGeometry y="15" width="60" height="30" as="geometry" />
        </mxCell>
        <mxCell id="OOjkwXW9jq_-rCwJ6NxN-197" value="0" style="text;html=1;strokeColor=none;fillColor=none;align=center;verticalAlign=middle;whiteSpace=wrap;rounded=0;" vertex="1" parent="OOjkwXW9jq_-rCwJ6NxN-191">
          <mxGeometry x="30" y="15" width="60" height="30" as="geometry" />
        </mxCell>
        <mxCell id="OOjkwXW9jq_-rCwJ6NxN-198" value="0" style="text;html=1;strokeColor=none;fillColor=none;align=center;verticalAlign=middle;whiteSpace=wrap;rounded=0;" vertex="1" parent="OOjkwXW9jq_-rCwJ6NxN-191">
          <mxGeometry x="60" y="15" width="60" height="30" as="geometry" />
        </mxCell>
        <mxCell id="OOjkwXW9jq_-rCwJ6NxN-199" value="0" style="text;html=1;strokeColor=none;fillColor=none;align=center;verticalAlign=middle;whiteSpace=wrap;rounded=0;" vertex="1" parent="OOjkwXW9jq_-rCwJ6NxN-191">
          <mxGeometry x="90" y="15" width="60" height="30" as="geometry" />
        </mxCell>
        <mxCell id="OOjkwXW9jq_-rCwJ6NxN-200" value="" style="group" vertex="1" connectable="0" parent="1">
          <mxGeometry x="1220" y="240" width="270" height="60" as="geometry" />
        </mxCell>
        <mxCell id="OOjkwXW9jq_-rCwJ6NxN-201" value="" style="rounded=0;whiteSpace=wrap;html=1;" vertex="1" parent="OOjkwXW9jq_-rCwJ6NxN-200">
          <mxGeometry x="13" width="120" height="60" as="geometry" />
        </mxCell>
        <mxCell id="OOjkwXW9jq_-rCwJ6NxN-202" value="" style="endArrow=none;html=1;rounded=0;entryX=0.25;entryY=0;entryDx=0;entryDy=0;" edge="1" parent="OOjkwXW9jq_-rCwJ6NxN-200" target="OOjkwXW9jq_-rCwJ6NxN-201">
          <mxGeometry width="50" height="50" relative="1" as="geometry">
            <mxPoint x="43" y="60" as="sourcePoint" />
            <mxPoint x="93" y="10" as="targetPoint" />
          </mxGeometry>
        </mxCell>
        <mxCell id="OOjkwXW9jq_-rCwJ6NxN-203" value="" style="endArrow=none;html=1;rounded=0;entryX=0.5;entryY=0;entryDx=0;entryDy=0;exitX=0.5;exitY=1;exitDx=0;exitDy=0;" edge="1" parent="OOjkwXW9jq_-rCwJ6NxN-200" source="OOjkwXW9jq_-rCwJ6NxN-201" target="OOjkwXW9jq_-rCwJ6NxN-201">
          <mxGeometry width="50" height="50" relative="1" as="geometry">
            <mxPoint x="53" y="70" as="sourcePoint" />
            <mxPoint x="53" y="10" as="targetPoint" />
          </mxGeometry>
        </mxCell>
        <mxCell id="OOjkwXW9jq_-rCwJ6NxN-204" value="" style="endArrow=none;html=1;rounded=0;entryX=0.75;entryY=0;entryDx=0;entryDy=0;exitX=0.75;exitY=1;exitDx=0;exitDy=0;" edge="1" parent="OOjkwXW9jq_-rCwJ6NxN-200" source="OOjkwXW9jq_-rCwJ6NxN-201" target="OOjkwXW9jq_-rCwJ6NxN-201">
          <mxGeometry width="50" height="50" relative="1" as="geometry">
            <mxPoint x="63" y="80" as="sourcePoint" />
            <mxPoint x="63" y="20" as="targetPoint" />
          </mxGeometry>
        </mxCell>
        <mxCell id="OOjkwXW9jq_-rCwJ6NxN-205" value="0" style="text;html=1;strokeColor=none;fillColor=none;align=center;verticalAlign=middle;whiteSpace=wrap;rounded=0;" vertex="1" parent="OOjkwXW9jq_-rCwJ6NxN-200">
          <mxGeometry y="15" width="60" height="30" as="geometry" />
        </mxCell>
        <mxCell id="OOjkwXW9jq_-rCwJ6NxN-206" value="0" style="text;html=1;strokeColor=none;fillColor=none;align=center;verticalAlign=middle;whiteSpace=wrap;rounded=0;" vertex="1" parent="OOjkwXW9jq_-rCwJ6NxN-200">
          <mxGeometry x="30" y="15" width="60" height="30" as="geometry" />
        </mxCell>
        <mxCell id="OOjkwXW9jq_-rCwJ6NxN-207" value="0" style="text;html=1;strokeColor=none;fillColor=none;align=center;verticalAlign=middle;whiteSpace=wrap;rounded=0;" vertex="1" parent="OOjkwXW9jq_-rCwJ6NxN-200">
          <mxGeometry x="60" y="15" width="60" height="30" as="geometry" />
        </mxCell>
        <mxCell id="OOjkwXW9jq_-rCwJ6NxN-208" value="0" style="text;html=1;strokeColor=none;fillColor=none;align=center;verticalAlign=middle;whiteSpace=wrap;rounded=0;" vertex="1" parent="OOjkwXW9jq_-rCwJ6NxN-200">
          <mxGeometry x="90" y="15" width="60" height="30" as="geometry" />
        </mxCell>
        <mxCell id="OOjkwXW9jq_-rCwJ6NxN-209" value="" style="group" vertex="1" connectable="0" parent="OOjkwXW9jq_-rCwJ6NxN-200">
          <mxGeometry x="120" width="150" height="60" as="geometry" />
        </mxCell>
        <mxCell id="OOjkwXW9jq_-rCwJ6NxN-210" value="" style="rounded=0;whiteSpace=wrap;html=1;" vertex="1" parent="OOjkwXW9jq_-rCwJ6NxN-209">
          <mxGeometry x="13" width="120" height="60" as="geometry" />
        </mxCell>
        <mxCell id="OOjkwXW9jq_-rCwJ6NxN-211" value="" style="endArrow=none;html=1;rounded=0;entryX=0.25;entryY=0;entryDx=0;entryDy=0;" edge="1" parent="OOjkwXW9jq_-rCwJ6NxN-209" target="OOjkwXW9jq_-rCwJ6NxN-210">
          <mxGeometry width="50" height="50" relative="1" as="geometry">
            <mxPoint x="43" y="60" as="sourcePoint" />
            <mxPoint x="93" y="10" as="targetPoint" />
          </mxGeometry>
        </mxCell>
        <mxCell id="OOjkwXW9jq_-rCwJ6NxN-212" value="" style="endArrow=none;html=1;rounded=0;entryX=0.5;entryY=0;entryDx=0;entryDy=0;exitX=0.5;exitY=1;exitDx=0;exitDy=0;" edge="1" parent="OOjkwXW9jq_-rCwJ6NxN-209" source="OOjkwXW9jq_-rCwJ6NxN-210" target="OOjkwXW9jq_-rCwJ6NxN-210">
          <mxGeometry width="50" height="50" relative="1" as="geometry">
            <mxPoint x="53" y="70" as="sourcePoint" />
            <mxPoint x="53" y="10" as="targetPoint" />
          </mxGeometry>
        </mxCell>
        <mxCell id="OOjkwXW9jq_-rCwJ6NxN-213" value="" style="endArrow=none;html=1;rounded=0;entryX=0.75;entryY=0;entryDx=0;entryDy=0;exitX=0.75;exitY=1;exitDx=0;exitDy=0;" edge="1" parent="OOjkwXW9jq_-rCwJ6NxN-209" source="OOjkwXW9jq_-rCwJ6NxN-210" target="OOjkwXW9jq_-rCwJ6NxN-210">
          <mxGeometry width="50" height="50" relative="1" as="geometry">
            <mxPoint x="63" y="80" as="sourcePoint" />
            <mxPoint x="63" y="20" as="targetPoint" />
          </mxGeometry>
        </mxCell>
        <mxCell id="OOjkwXW9jq_-rCwJ6NxN-214" value="0" style="text;html=1;strokeColor=none;fillColor=none;align=center;verticalAlign=middle;whiteSpace=wrap;rounded=0;" vertex="1" parent="OOjkwXW9jq_-rCwJ6NxN-209">
          <mxGeometry y="15" width="60" height="30" as="geometry" />
        </mxCell>
        <mxCell id="OOjkwXW9jq_-rCwJ6NxN-215" value="0" style="text;html=1;strokeColor=none;fillColor=none;align=center;verticalAlign=middle;whiteSpace=wrap;rounded=0;" vertex="1" parent="OOjkwXW9jq_-rCwJ6NxN-209">
          <mxGeometry x="30" y="15" width="60" height="30" as="geometry" />
        </mxCell>
        <mxCell id="OOjkwXW9jq_-rCwJ6NxN-216" value="0" style="text;html=1;strokeColor=none;fillColor=none;align=center;verticalAlign=middle;whiteSpace=wrap;rounded=0;" vertex="1" parent="OOjkwXW9jq_-rCwJ6NxN-209">
          <mxGeometry x="60" y="15" width="60" height="30" as="geometry" />
        </mxCell>
        <mxCell id="OOjkwXW9jq_-rCwJ6NxN-217" value="0" style="text;html=1;strokeColor=none;fillColor=none;align=center;verticalAlign=middle;whiteSpace=wrap;rounded=0;" vertex="1" parent="OOjkwXW9jq_-rCwJ6NxN-209">
          <mxGeometry x="90" y="15" width="60" height="30" as="geometry" />
        </mxCell>
        <mxCell id="OOjkwXW9jq_-rCwJ6NxN-218" value="" style="group" vertex="1" connectable="0" parent="1">
          <mxGeometry x="1460" y="240" width="150" height="60" as="geometry" />
        </mxCell>
        <mxCell id="OOjkwXW9jq_-rCwJ6NxN-219" value="" style="rounded=0;whiteSpace=wrap;html=1;" vertex="1" parent="OOjkwXW9jq_-rCwJ6NxN-218">
          <mxGeometry x="13" width="120" height="60" as="geometry" />
        </mxCell>
        <mxCell id="OOjkwXW9jq_-rCwJ6NxN-220" value="" style="endArrow=none;html=1;rounded=0;entryX=0.25;entryY=0;entryDx=0;entryDy=0;" edge="1" parent="OOjkwXW9jq_-rCwJ6NxN-218" target="OOjkwXW9jq_-rCwJ6NxN-219">
          <mxGeometry width="50" height="50" relative="1" as="geometry">
            <mxPoint x="43" y="60" as="sourcePoint" />
            <mxPoint x="93" y="10" as="targetPoint" />
          </mxGeometry>
        </mxCell>
        <mxCell id="OOjkwXW9jq_-rCwJ6NxN-221" value="" style="endArrow=none;html=1;rounded=0;entryX=0.5;entryY=0;entryDx=0;entryDy=0;exitX=0.5;exitY=1;exitDx=0;exitDy=0;" edge="1" parent="OOjkwXW9jq_-rCwJ6NxN-218" source="OOjkwXW9jq_-rCwJ6NxN-219" target="OOjkwXW9jq_-rCwJ6NxN-219">
          <mxGeometry width="50" height="50" relative="1" as="geometry">
            <mxPoint x="53" y="70" as="sourcePoint" />
            <mxPoint x="53" y="10" as="targetPoint" />
          </mxGeometry>
        </mxCell>
        <mxCell id="OOjkwXW9jq_-rCwJ6NxN-222" value="" style="endArrow=none;html=1;rounded=0;entryX=0.75;entryY=0;entryDx=0;entryDy=0;exitX=0.75;exitY=1;exitDx=0;exitDy=0;" edge="1" parent="OOjkwXW9jq_-rCwJ6NxN-218" source="OOjkwXW9jq_-rCwJ6NxN-219" target="OOjkwXW9jq_-rCwJ6NxN-219">
          <mxGeometry width="50" height="50" relative="1" as="geometry">
            <mxPoint x="63" y="80" as="sourcePoint" />
            <mxPoint x="63" y="20" as="targetPoint" />
          </mxGeometry>
        </mxCell>
        <mxCell id="OOjkwXW9jq_-rCwJ6NxN-223" value="0" style="text;html=1;strokeColor=none;fillColor=none;align=center;verticalAlign=middle;whiteSpace=wrap;rounded=0;" vertex="1" parent="OOjkwXW9jq_-rCwJ6NxN-218">
          <mxGeometry y="15" width="60" height="30" as="geometry" />
        </mxCell>
        <mxCell id="OOjkwXW9jq_-rCwJ6NxN-224" value="0" style="text;html=1;strokeColor=none;fillColor=none;align=center;verticalAlign=middle;whiteSpace=wrap;rounded=0;" vertex="1" parent="OOjkwXW9jq_-rCwJ6NxN-218">
          <mxGeometry x="30" y="15" width="60" height="30" as="geometry" />
        </mxCell>
        <mxCell id="OOjkwXW9jq_-rCwJ6NxN-225" value="0" style="text;html=1;strokeColor=none;fillColor=none;align=center;verticalAlign=middle;whiteSpace=wrap;rounded=0;" vertex="1" parent="OOjkwXW9jq_-rCwJ6NxN-218">
          <mxGeometry x="60" y="15" width="60" height="30" as="geometry" />
        </mxCell>
        <mxCell id="OOjkwXW9jq_-rCwJ6NxN-226" value="0" style="text;html=1;strokeColor=none;fillColor=none;align=center;verticalAlign=middle;whiteSpace=wrap;rounded=0;" vertex="1" parent="OOjkwXW9jq_-rCwJ6NxN-218">
          <mxGeometry x="90" y="15" width="60" height="30" as="geometry" />
        </mxCell>
        <mxCell id="OOjkwXW9jq_-rCwJ6NxN-236" value="31     30     29     28     27     26     25     24     23     22     21     20     19     18     17     16     15     14     13     12     11     10         9         8         7         6         5         4         3         2         1         0" style="text;html=1;strokeColor=none;fillColor=none;align=center;verticalAlign=middle;whiteSpace=wrap;rounded=0;" vertex="1" parent="1">
          <mxGeometry x="570" y="210" width="1020" height="30" as="geometry" />
        </mxCell>
      </root>
    </mxGraphModel>
  </diagram>
</mxfile>
